<svg xmlns="http://www.w3.org/2000/svg" viewBox="0 0 672.88 1080"><defs><style>.cls-1{fill:#c2ffc2;}.cls-2,.cls-5{fill:#fff;}.cls-3,.cls-6{fill:none;}.cls-3,.cls-5,.cls-6{stroke:#000;stroke-miterlimit:10;}.cls-3{stroke-width:5px;}.cls-4{fill:#a6ffaa;}.cls-5,.cls-6{stroke-width:3px;}</style></defs><title>Asset 1</title><g id="Layer_2" data-name="Layer 2"><g id="Layer_1-2" data-name="Layer 1"><polygon class="cls-1" points="204.95 1080 672.88 1080 672.88 0 204.95 1080"/><rect class="cls-2" x="187.79" y="434.99" width="352.48" height="217.49" rx="22.41" ry="22.41"/><path d="M517.87,436.49a20.91,20.91,0,0,1,20.91,20.91V630.07A20.91,20.91,0,0,1,517.87,651H210.21a20.92,20.92,0,0,1-20.92-20.91V457.4a20.92,20.92,0,0,1,20.92-20.91H517.87m0-3H210.21a23.94,23.94,0,0,0-23.92,23.91V630.07A23.94,23.94,0,0,0,210.21,654H517.87a23.94,23.94,0,0,0,23.91-23.91V457.4a23.94,23.94,0,0,0-23.91-23.91Z"/><path class="cls-3" d="M503.45,691.82a66,66,0,0,0,35.33-121.76"/><path class="cls-4" d="M443.23,651h74.64a20.91,20.91,0,0,0,20.91-20.91V457.4a20.91,20.91,0,0,0-20.91-20.91H497.23Z"/><path class="cls-5" d="M382.37,652.77H345.7l-10,96.12h56.67Zm-10.23,51.76a4.3,4.3,0,0,1-4.34,4.26h-7.53a4.31,4.31,0,0,1-4.35-4.26v-7.4a4.32,4.32,0,0,1,4.35-4.27h7.53a4.31,4.31,0,0,1,4.34,4.27Z"/><rect class="cls-5" x="280.04" y="739.22" width="168" height="9.67" rx="4.83" ry="4.83"/><rect class="cls-2" x="28.16" y="567.24" width="274.28" height="169.49" rx="22.41" ry="22.41"/><path d="M280,568.74a20.91,20.91,0,0,1,20.91,20.91V714.32A20.91,20.91,0,0,1,280,735.23H50.57a20.91,20.91,0,0,1-20.91-20.91V589.65a20.91,20.91,0,0,1,20.91-20.91H280m0-3H50.57a23.93,23.93,0,0,0-23.91,23.91V714.32a23.94,23.94,0,0,0,23.91,23.91H280a23.94,23.94,0,0,0,23.91-23.91V589.65A23.93,23.93,0,0,0,280,565.74Z"/><path d="M143.63,735.23H187a0,0,0,0,1,0,0v0a6.83,6.83,0,0,1-6.83,6.83H150.46a6.83,6.83,0,0,1-6.83-6.83v0a0,0,0,0,1,0,0Z"/><rect class="cls-5" x="425.45" y="581.89" width="78" height="167" rx="13.33" ry="13.33"/><line class="cls-6" x1="425.45" y1="597.56" x2="503.45" y2="597.56"/><rect x="452.12" y="588.39" width="24.67" height="2.33" rx="1.17" ry="1.17"/><line class="cls-6" x1="503.45" y1="728.23" x2="425.45" y2="728.23"/><rect class="cls-2" x="1.5" y="325.39" width="255.23" height="166" rx="37.25" ry="37.25"/><path d="M219.48,326.89a35.76,35.76,0,0,1,35.75,35.75v91.5a35.75,35.75,0,0,1-35.75,35.75H38.75A35.75,35.75,0,0,1,3,454.14v-91.5a35.76,35.76,0,0,1,35.75-35.75H219.48m0-3H38.75A38.8,38.8,0,0,0,0,362.64v91.5a38.8,38.8,0,0,0,38.75,38.75H219.48a38.79,38.79,0,0,0,38.75-38.75v-91.5a38.8,38.8,0,0,0-38.75-38.75Z"/><path class="cls-2" d="M38.75,491.39A37.29,37.29,0,0,1,1.5,454.14v-93H256.73v93a37.29,37.29,0,0,1-37.25,37.25Z"/><path d="M255.23,362.64v91.5a35.76,35.76,0,0,1-35.75,35.75H38.75A35.76,35.76,0,0,1,3,454.14v-91.5H255.23m3-3H0v94.5a38.79,38.79,0,0,0,38.75,38.75H219.48a38.79,38.79,0,0,0,38.75-38.75v-94.5Z"/><path class="cls-1" d="M68.56,489.89H38.75A35.76,35.76,0,0,1,3,454.14v-91.5H40.56Z"/><path class="cls-2" d="M1.5,364.14v-1.5a37.29,37.29,0,0,1,37.25-37.25H219.48a37.29,37.29,0,0,1,37.25,37.25v1.5Z"/><path d="M219.48,326.89a35.76,35.76,0,0,1,35.75,35.75H3a35.76,35.76,0,0,1,35.75-35.75H219.48m0-3H38.75A38.8,38.8,0,0,0,0,362.64v3H258.23v-3a38.8,38.8,0,0,0-38.75-38.75Z"/><line class="cls-6" x1="3" y1="362.64" x2="1.61" y2="362.64"/><line class="cls-6" x1="256.63" y1="362.64" x2="255.23" y2="362.64"/><circle cx="36.73" cy="345.89" r="3.83"/><circle cx="50.73" cy="345.89" r="3.83"/><circle cx="64.73" cy="345.89" r="3.83"/><path class="cls-3" d="M129.12,489.89s5,44,60.17,44"/><polygon class="cls-1" points="489.99 599.02 501.96 599.02 501.96 726.74 464.45 726.74 489.99 599.02"/><path class="cls-1" d="M94.56,568.74h-44a20.91,20.91,0,0,0-20.91,20.91V714.32a20.91,20.91,0,0,0,20.91,20.91h78.55"/><path class="cls-2" d="M512.27,500a46.55,46.55,0,0,1-40.62-23.51,46.83,46.83,0,1,1-24.31-86.86h1c-.07-1.07-.11-2.17-.11-3.28A46.83,46.83,0,0,1,541,377.73a46.83,46.83,0,1,1,18.53,89.84c-.89,0-1.79,0-2.69-.07A46.9,46.9,0,0,1,512.27,500Z"/><path d="M495,342.06a44.32,44.32,0,0,1,44,39.37,44.33,44.33,0,1,1,20.5,83.64,44.8,44.8,0,0,1-4.51-.23,44.34,44.34,0,0,1-82.48,8.1,44.33,44.33,0,1,1-25.23-80.78c1.26,0,2.51,0,3.74.16a43,43,0,0,1-.4-5.93A44.33,44.33,0,0,1,495,342.06m0-5a49.39,49.39,0,0,0-49.33,49.33v.8a49.33,49.33,0,1,0,25.1,92.72,49.35,49.35,0,0,0,87.86-9.84h.92a49.33,49.33,0,1,0-16.71-95.75A49.26,49.26,0,0,0,495,337.06Z"/><path class="cls-1" d="M559.56,376.41a44.33,44.33,0,1,1,0,88.66,44.8,44.8,0,0,1-4.51-.23,44.37,44.37,0,0,1-15.64,23.41"/><rect class="cls-5" x="3" y="735.23" width="324.59" height="13.66" rx="4.83" ry="4.83"/></g></g></svg>